# xmcd
#
# Track frame offsets: 
#        150
#        8042
#        14800
#        21185
#        29827
#        38152
#        47037
#        56337
#        71967
#        80427
#        88962
#        97947
#        108025
#        116372
#        123657
#        129992
#        136712
#        145905
#        155162
#        166155
#        173372
#        182577
#        188722
#        194770
#        203125
#
# Disc length: 2870 seconds
#
# Revision: 0
# Processed by: cddbd v1.5.2PL0 Copyright (c) Steve Scherf et al.
# Submitted via: ExactAudioCopy v0.99pb5
#
DISCID=570b3419
DTITLE=Gene Autry - Goin' Back to Texas: 25 Texas Classics
DYEAR=2001
DGENRE=Country
TTITLE0=Goin' Back to Texas
TTITLE1=Way Out West in Texas
TTITLE2=Texas Sandman
TTITLE3=Gonna Build a Big Fence around Texas
TTITLE4=Lone Star Moon
TTITLE5=Ride, Ranger Ride
TTITLE6=There's a Rainbow on the Rio Colorado
TTITLE7=Beautiful Texas
TTITLE8=The Yellow Rose of Texas
TTITLE9=Sleepy Rio Grande
TTITLE10=Texans Never Cry
TTITLE11=A Boy from Texas, a Girl from Tennessee
TTITLE12=Can't Shake the Sands of Texas from My Shoes
TTITLE13=I've Got a Heart As Big As Texas
TTITLE14=Gallivantin' Galveston Gal
TTITLE15=When the Bloom Is on the Sage (When It's Round-Up Time in Tex
TTITLE15=as)
TTITLE16=San Antonio Rose
TTITLE17=Lone Star Trail
TTITLE18=The Streets of Laredo
TTITLE19=Fort Worth Jail
TTITLE20=Down Texas Way
TTITLE21=I'll Go Ridin' Down That Old Texas Trail
TTITLE22=(Down the) Trail to San Antone
TTITLE23=Deep in the Heart of Texas
TTITLE24=The Night before Christmas (in Texas, That Is)
EXTD=
EXTT0=
EXTT1=
EXTT2=
EXTT3=
EXTT4=
EXTT5=
EXTT6=
EXTT7=
EXTT8=
EXTT9=
EXTT10=
EXTT11=
EXTT12=
EXTT13=
EXTT14=
EXTT15=
EXTT16=
EXTT17=
EXTT18=
EXTT19=
EXTT20=
EXTT21=
EXTT22=
EXTT23=
EXTT24=
PLAYORDER=
